<?xml version="1.0" standalone="no"?>
<!DOCTYPE svg PUBLIC "-//W3C//DTD SVG 20010904//EN"
 "http://www.w3.org/TR/2001/REC-SVG-20010904/DTD/svg10.dtd">
<svg version="1.0" xmlns="http://www.w3.org/2000/svg"
 width="1080.000000pt" height="1080.000000pt" viewBox="0 0 1080.000000 1080.000000"
 preserveAspectRatio="xMidYMid meet">
<metadata>
Created by potrace 1.11, written by Peter Selinger 2001-2013
</metadata>
<g transform="translate(0.000000,1080.000000) scale(0.100000,-0.100000)"
fill="#000000" stroke="none">
<path d="M7716 8331 c6 -6 28 -14 50 -18 29 -4 36 -3 28 6 -6 6 -28 14 -50 18
-29 4 -36 3 -28 -6z"/>
<path d="M7630 8300 c0 -13 58 -42 70 -35 6 3 10 0 10 -8 0 -21 52 -54 93 -59
20 -2 37 -1 37 3 0 13 -84 81 -117 95 -37 16 -93 19 -93 4z"/>
<path d="M7510 8273 c0 -12 -10 -14 -60 -8 -47 5 -66 4 -85 -9 -13 -9 -38 -16
-55 -16 -16 0 -30 -4 -30 -9 0 -5 -22 -31 -48 -58 -51 -50 -72 -93 -46 -93 17
0 17 2 -1 -50 -8 -23 -15 -46 -15 -51 0 -16 29 -10 40 9 8 13 10 -2 8 -60 -2
-71 0 -79 20 -94 18 -12 26 -13 37 -4 11 9 11 16 -1 45 -8 19 -14 42 -13 52 0
11 3 13 6 6 7 -19 33 -16 33 3 0 10 6 14 15 10 9 -3 19 3 26 17 7 12 13 23 14
25 2 2 13 -3 24 -10 18 -11 23 -11 31 2 5 8 10 11 10 6 0 -5 6 -3 14 3 18 15
61 5 100 -22 29 -20 29 -20 24 -1 -4 17 -1 19 28 16 26 -3 35 1 50 23 11 17
24 25 35 22 21 -6 32 25 19 57 -4 12 -30 42 -57 67 -27 24 -48 50 -45 57 5 15
-10 16 -24 2 -7 -7 -16 -4 -29 10 -10 11 -13 20 -7 20 7 0 12 -5 12 -11 0 -6
6 -9 13 -6 6 2 11 10 9 17 -2 8 3 10 15 5 40 -16 85 -26 91 -20 8 8 -23 27
-58 37 -93 25 -100 26 -100 11z"/>
<path d="M3490 7916 c0 -22 -15 -27 -48 -15 -23 8 -38 7 -67 -5 -24 -10 -68
-16 -125 -16 -96 0 -135 -18 -142 -63 -3 -19 -9 -22 -45 -22 -46 -1 -59 -9
-65 -40 -2 -10 -14 -22 -27 -25 -14 -3 -31 -19 -40 -38 -9 -17 -23 -32 -32
-32 -9 0 -24 -9 -34 -20 -12 -13 -29 -20 -44 -18 -35 4 -36 -14 -1 -34 35 -20
32 -41 -10 -58 -15 -6 -40 -24 -55 -40 -21 -22 -25 -32 -17 -46 5 -11 7 -25 5
-32 -3 -8 4 -16 16 -19 20 -5 21 -10 15 -62 -5 -43 -3 -60 8 -69 12 -9 13 -23
7 -59 -13 -78 -11 -151 4 -160 8 -4 22 -35 31 -68 10 -33 22 -68 27 -77 5 -10
6 -24 3 -32 -10 -26 29 -38 69 -21 19 8 64 14 100 14 64 -1 91 7 127 38 13 11
16 22 11 36 -9 24 8 117 21 117 4 0 13 11 18 25 12 31 40 33 40 3 l0 -22 21
22 c11 12 24 20 30 17 5 -4 9 1 9 10 0 9 4 14 9 11 5 -4 11 -1 13 4 2 6 29 14
61 17 54 5 59 4 64 -16 3 -11 9 -21 13 -21 12 0 80 -70 81 -83 0 -7 7 3 15 21
12 26 20 32 45 32 18 0 39 -8 48 -17 23 -25 34 -27 145 -25 69 2 107 -2 127
-12 23 -11 37 -12 60 -4 53 18 110 -5 147 -62 28 -42 31 -54 28 -108 -3 -68 4
-88 28 -79 11 5 16 1 16 -14 0 -11 5 -17 10 -14 6 3 10 32 10 64 0 32 6 77 14
99 14 39 14 40 -10 45 -27 5 -28 3 -14 -24 8 -15 7 -19 -3 -19 -15 0 -50 72
-62 127 -6 29 -4 32 12 26 10 -3 23 -10 28 -14 6 -4 24 -7 41 -7 17 1 36 -2
43 -6 6 -4 15 3 21 19 5 14 16 28 24 31 8 3 22 16 30 30 15 21 15 27 1 62 -14
34 -14 44 -2 80 13 36 13 44 0 62 -8 12 -12 31 -9 43 3 13 -4 38 -19 64 -17
29 -25 57 -25 90 0 27 -5 54 -11 60 -8 8 -9 20 -1 41 15 43 0 59 -65 67 -32 4
-60 10 -63 14 -3 4 -22 17 -42 30 -36 22 -49 41 -28 41 6 0 10 7 10 15 0 10
-11 15 -35 15 -40 0 -71 15 -97 47 -21 25 -103 45 -148 36 -24 -4 -36 -1 -52
17 -14 15 -23 19 -26 11 -2 -6 -20 -18 -39 -26 -32 -13 -39 -13 -58 -1 -12 8
-32 12 -43 9 -20 -5 -82 24 -82 39 0 4 -4 8 -10 8 -5 0 -10 -6 -10 -14z m767
-278 c-3 -8 -6 -5 -6 6 -1 11 2 17 5 13 3 -3 4 -12 1 -19z m-1417 -408 c0 -5
-2 -10 -4 -10 -3 0 -8 5 -11 10 -3 6 -1 10 4 10 6 0 11 -4 11 -10z m1336 -64
c-18 -28 -56 -35 -56 -12 0 8 12 24 27 36 34 27 53 12 29 -24z m-1211 14 c3
-5 1 -10 -4 -10 -6 0 -11 5 -11 10 0 6 2 10 4 10 3 0 8 -4 11 -10z"/>
<path d="M7653 7837 c-18 -6 -33 -16 -33 -22 0 -7 13 -38 29 -69 32 -59 29
-73 -4 -29 -11 15 -35 42 -54 61 -28 27 -40 33 -70 31 -22 -2 -47 4 -61 14
-32 22 -43 21 -30 -3 10 -18 8 -19 -30 -16 -51 4 -51 -8 -4 -66 69 -82 81 -90
155 -102 20 -4 54 -20 74 -36 21 -17 46 -30 56 -30 10 0 20 -4 24 -9 3 -5 22
-15 43 -22 56 -18 177 -143 193 -200 16 -56 25 -66 38 -42 12 23 34 169 35
228 1 44 -33 132 -68 180 -13 17 -33 49 -46 73 -15 26 -31 42 -43 42 -14 0
-17 -5 -11 -22 4 -13 11 -26 17 -29 5 -4 7 -11 3 -17 -3 -6 -2 -13 4 -17 16
-10 12 -55 -5 -55 -24 0 -84 34 -85 48 0 14 -48 62 -61 62 -5 0 -9 6 -9 13 -1
30 -24 43 -57 34z"/>
<path d="M7070 7715 c0 -19 -4 -35 -8 -35 -5 0 -14 -10 -20 -22 -10 -22 -11
-22 -23 11 l-12 34 -26 -44 c-14 -24 -26 -48 -27 -54 0 -5 -2 -19 -2 -29 -2
-16 -5 -17 -14 -8 -17 17 -31 15 -24 -3 3 -8 1 -15 -4 -15 -6 0 -10 -10 -10
-23 0 -18 -5 -23 -22 -23 -16 1 -23 -5 -24 -19 -1 -11 -2 -22 -4 -25 -8 -14
-7 -66 2 -165 6 -60 10 -154 9 -207 -1 -103 -2 -101 53 -146 11 -9 14 -22 9
-44 -4 -22 -2 -34 10 -43 13 -10 22 -37 26 -79 1 -5 9 -2 19 7 10 10 27 17 36
17 15 0 17 -6 13 -27 -33 -171 -32 -223 3 -223 11 0 20 -4 20 -8 0 -5 10 -20
21 -33 48 -55 67 -86 72 -116 3 -17 7 -36 10 -40 3 -5 2 -15 -3 -23 -8 -12
-13 -13 -30 -2 -27 16 -30 15 -30 -8 0 -11 9 -29 20 -40 15 -15 19 -27 13 -48
-4 -15 -7 -37 -8 -49 0 -13 -3 -23 -7 -23 -5 0 1 -9 13 -21 15 -15 19 -27 14
-50 -5 -22 -2 -36 10 -49 26 -28 35 -16 35 46 0 64 13 94 40 94 18 0 32 29 58
120 9 32 10 33 11 8 1 -15 -5 -47 -13 -70 -32 -99 -30 -136 5 -101 10 10 26
25 35 33 16 13 17 13 11 -3 -7 -20 8 -23 20 -4 4 6 16 18 26 26 15 12 17 11
17 -2 0 -9 -7 -23 -16 -31 -8 -9 -12 -16 -7 -16 16 0 31 -56 38 -137 4 -46 10
-83 14 -83 8 1 41 73 41 92 0 9 -6 21 -14 27 -19 16 -31 70 -18 83 13 13 70
-5 87 -29 11 -15 14 -15 38 3 15 10 27 23 27 28 0 8 33 50 81 103 11 12 25 49
31 85 9 51 17 69 44 95 19 17 50 37 69 44 19 7 35 16 35 20 0 4 12 10 26 13
19 5 25 12 21 26 -4 16 -1 18 22 14 20 -4 35 3 66 33 22 20 48 36 58 35 9 -2
17 2 17 8 0 7 7 10 15 6 19 -7 35 23 35 67 0 51 -67 173 -85 155 -3 -3 2 -21
10 -41 17 -40 20 -77 7 -77 -5 0 -17 9 -27 20 -10 11 -27 20 -38 20 -20 0 -20
-12 -2 -80 6 -23 5 -23 -8 -8 -7 9 -20 42 -27 72 -8 35 -19 56 -30 59 -21 5
-56 -31 -65 -66 -4 -14 -13 -28 -21 -31 -8 -3 -14 -12 -14 -20 0 -7 -19 -23
-42 -34 -24 -11 -56 -34 -72 -51 -17 -17 -38 -31 -49 -31 -10 0 -27 -5 -38
-10 -10 -6 -19 -7 -19 -3 0 4 -33 8 -73 8 -89 1 -124 21 -185 109 -23 34 -76
104 -117 156 -81 103 -117 160 -135 214 -16 48 -14 157 3 197 7 19 12 40 10
47 -3 6 5 16 18 20 13 5 18 11 12 15 -11 7 -6 47 5 47 2 0 15 -12 28 -26 29
-31 44 -24 44 20 0 38 -34 76 -68 76 -12 0 -22 6 -22 14 0 16 24 38 33 30 3
-3 12 3 19 15 7 12 19 21 27 21 10 0 12 9 6 38 -4 20 -11 39 -16 40 -6 3 -6 8
0 16 13 15 -7 106 -23 106 -7 0 -21 9 -31 20 -28 31 -45 25 -45 -15z m930
-1090 c10 -12 10 -15 -4 -15 -9 0 -16 7 -16 15 0 8 2 15 4 15 2 0 9 -7 16 -15z
m-140 -126 c0 -5 -4 -9 -9 -9 -5 0 -16 -3 -24 -6 -8 -3 -17 2 -21 11 -3 9 -2
13 3 10 5 -3 12 -1 16 4 7 12 35 3 35 -10z m-664 -222 c-7 -80 -20 -123 -41
-131 -9 -3 -9 4 1 32 7 21 13 62 14 92 0 30 3 73 7 94 6 37 7 38 16 15 5 -13
6 -59 3 -102z"/>
<path d="M7370 7713 c1 -10 30 -45 53 -62 15 -12 17 -12 10 5 -12 35 -63 80
-63 57z"/>
<path d="M8213 7632 c-7 -5 -10 -22 -6 -49 4 -32 9 -40 22 -36 13 4 13 3 2 -5
-14 -10 -18 -23 -22 -67 -3 -38 1 -42 31 -37 30 4 30 4 24 -34 -3 -22 -9 -40
-13 -42 -11 -4 15 -152 29 -165 10 -9 11 -9 6 0 -3 6 -2 14 4 18 6 4 9 9 6 13
-2 4 -6 37 -10 73 l-6 66 25 -5 c21 -4 25 -10 25 -41 1 -29 3 -33 11 -19 20
36 -11 211 -45 248 -13 14 -26 33 -29 43 -4 9 -11 17 -17 17 -5 0 -10 7 -10
15 0 16 -9 19 -27 7z"/>
<path d="M8041 7614 c0 -11 3 -14 6 -6 3 7 2 16 -1 19 -3 4 -6 -2 -5 -13z"/>
<path d="M7386 7477 c-22 -16 -19 -75 5 -90 27 -17 66 0 77 32 9 26 16 30 54
34 42 3 42 4 -9 5 -40 2 -53 6 -53 17 0 19 -49 20 -74 2z"/>
<path d="M7576 7461 c-14 -23 65 -28 84 -6 11 13 6 15 -33 15 -25 0 -48 -4
-51 -9z"/>
<path d="M8300 7333 c0 -13 5 -23 10 -23 13 0 13 11 0 30 -8 12 -10 11 -10 -7z"/>
<path d="M8376 7048 c3 -13 15 -40 25 -60 11 -21 19 -46 19 -56 0 -46 73 -167
87 -146 5 6 16 14 27 17 16 7 17 9 4 30 -8 12 -31 52 -52 89 -20 36 -44 72
-52 79 -8 7 -22 25 -30 41 -17 34 -38 38 -28 6z"/>
<path d="M7917 7014 c-4 -4 -7 -14 -7 -23 0 -11 3 -12 11 -4 6 6 10 16 7 23
-2 6 -7 8 -11 4z"/>
<path d="M8161 6994 c0 -11 3 -14 6 -6 3 7 2 16 -1 19 -3 4 -6 -2 -5 -13z"/>
<path d="M4264 6971 c4 -5 1 -12 -4 -14 -6 -3 -5 -4 2 -3 15 3 23 26 8 26 -6
0 -9 -4 -6 -9z"/>
<path d="M8161 6944 c0 -11 3 -14 6 -6 3 7 2 16 -1 19 -3 4 -6 -2 -5 -13z"/>
<path d="M2775 6919 c-4 -11 -4 -37 0 -57 l7 -37 18 45 c10 25 15 50 13 57 -8
20 -31 15 -38 -8z"/>
<path d="M7249 6908 c-11 -20 -4 -58 11 -58 4 0 17 -15 28 -34 16 -27 29 -35
60 -41 51 -8 83 11 107 65 10 22 23 40 30 40 7 0 20 9 29 19 17 19 15 19 -76
25 -145 9 -177 6 -189 -16z m211 -38 c0 -5 -7 -10 -15 -10 -8 0 -15 5 -15 10
0 6 7 10 15 10 8 0 15 -4 15 -10z"/>
<path d="M8391 6829 c-6 -17 -8 -35 -6 -39 3 -5 1 -11 -4 -15 -15 -8 -8 -65 7
-65 7 0 17 11 23 23 12 27 38 32 40 8 1 -18 17 25 18 51 1 11 -4 15 -13 12 -9
-3 -17 6 -24 25 -14 39 -27 39 -41 0z"/>
<path d="M2836 6806 c-19 -16 -27 -31 -24 -47 3 -24 4 -23 41 13 21 21 36 42
32 48 -9 15 -19 12 -49 -14z"/>
<path d="M8290 6789 c0 -5 5 -7 10 -4 6 3 10 8 10 11 0 2 -4 4 -10 4 -5 0 -10
-5 -10 -11z"/>
<path d="M8290 6725 c0 -14 -11 -19 -38 -16 -6 1 -17 -10 -22 -25 -10 -25 -14
-26 -55 -22 l-45 6 -2 -52 c0 -28 0 -59 0 -69 2 -14 -3 -17 -18 -12 -11 3 -20
2 -20 -4 0 -5 -3 -16 -6 -25 -5 -13 -1 -13 25 -3 25 9 36 9 52 -2 14 -8 25 -9
31 -3 6 6 6 12 -1 16 -16 10 -13 26 4 26 8 0 15 4 15 9 0 5 8 7 18 4 49 -12
91 32 97 103 1 17 5 37 9 43 9 14 -11 41 -30 41 -8 0 -14 -7 -14 -15z"/>
<path d="M8419 6693 c-5 -16 -12 -34 -14 -40 -2 -7 0 -13 6 -13 6 0 8 -4 5 -9
-3 -5 3 -11 14 -14 21 -5 28 7 10 18 -6 4 -7 23 -4 46 8 45 -2 52 -17 12z"/>
<path d="M3340 6666 c0 -8 8 -14 18 -14 9 1 47 -12 83 -29 65 -31 66 -31 82
-90 30 -107 23 -116 -65 -75 -35 16 -79 34 -98 40 -19 5 -61 18 -93 28 -43 13
-60 15 -69 6 -8 -8 -5 -14 13 -21 101 -39 141 -57 195 -87 71 -39 99 -67 91
-89 -8 -19 -38 -19 -107 1 -68 20 -179 36 -201 29 -9 -3 -21 -15 -28 -28 -6
-12 -9 -14 -7 -4 3 9 2 17 -3 17 -5 0 -11 -11 -13 -25 -3 -14 -2 -25 1 -25 4
0 7 -12 6 -27 0 -20 -6 -29 -25 -33 -16 -4 -21 -8 -13 -13 8 -5 9 -15 3 -31
-5 -13 -6 -33 -3 -45 3 -12 -6 -54 -20 -94 -13 -39 -30 -92 -37 -117 -20 -73
-37 -103 -79 -144 -22 -21 -42 -49 -45 -62 -5 -20 -9 -22 -38 -13 -46 13 -42
14 -83 -42 -32 -45 -40 -50 -63 -45 -15 3 -52 11 -83 16 -74 13 -116 31 -173
75 -65 49 -96 47 -152 -10 -24 -25 -44 -50 -44 -55 0 -6 -8 -10 -19 -10 -35 0
-69 -37 -67 -72 1 -17 8 -34 14 -36 7 -2 12 -7 12 -11 0 -15 167 -179 200
-196 19 -10 71 -30 115 -45 44 -14 89 -31 100 -38 17 -10 18 -13 5 -22 -13 -9
-13 -12 3 -21 25 -14 21 -23 -14 -36 -29 -11 -31 -15 -26 -46 3 -21 0 -46 -9
-62 -8 -15 -19 -57 -24 -93 -6 -36 -14 -70 -17 -76 -13 -20 -8 -71 8 -81 12
-8 14 -17 7 -43 -7 -27 -13 -33 -31 -30 -18 2 -22 10 -22 38 0 20 -8 44 -20
58 -24 27 -32 28 -39 4 -4 -11 -18 -25 -33 -33 -38 -20 -104 -114 -96 -135 5
-13 3 -16 -10 -11 -11 4 -20 -1 -27 -13 -8 -16 -8 -20 4 -20 11 0 14 -9 12
-34 -4 -61 -51 -108 -73 -73 -11 16 -35 15 -49 -2 -15 -19 -83 -44 -121 -44
-20 0 -30 -5 -26 -11 4 -6 -1 -5 -10 3 -15 12 -17 11 -17 -7 0 -11 6 -22 14
-25 9 -3 12 -15 9 -31 -4 -19 -1 -26 11 -26 9 0 16 -4 16 -10 0 -5 -11 -10
-25 -10 -14 0 -25 -4 -25 -8 0 -12 -47 -32 -75 -32 -16 0 -25 -6 -25 -16 0
-11 -6 -14 -20 -9 -14 4 -20 2 -20 -8 0 -8 -7 -20 -15 -27 -9 -7 -13 -15 -10
-18 3 -3 0 -11 -5 -17 -17 -21 21 -29 39 -9 15 15 14 16 -1 11 -10 -4 -18 -2
-18 4 0 7 10 9 23 5 23 -5 97 10 107 23 3 3 12 11 21 16 53 34 109 81 109 92
0 7 4 13 9 13 5 0 22 5 36 10 24 9 25 12 14 27 -13 15 -12 15 9 4 20 -11 26
-10 36 5 9 11 15 13 20 6 3 -6 1 -14 -6 -19 -7 -4 -20 -20 -28 -34 -36 -63
-71 -109 -84 -109 -8 0 -16 -6 -19 -13 -7 -20 -211 -117 -226 -108 -2 2 -7 -1
-10 -6 -3 -5 -18 -14 -33 -20 -23 -10 -28 -9 -42 10 l-15 22 2 -25 c2 -24 0
-25 -55 -24 -58 0 -62 -3 -59 -38 3 -22 -12 -23 -33 -3 -21 21 -27 19 -20 -9
3 -13 1 -27 -6 -31 -6 -4 -8 -15 -5 -26 8 -25 1 -24 -24 3 l-20 21 -11 -27
c-5 -14 -17 -29 -25 -32 -8 -4 -15 -15 -15 -25 0 -17 -3 -18 -20 -9 -15 8 -20
8 -18 -2 2 -8 -8 -11 -32 -10 -63 5 -66 8 -65 56 l2 43 -41 -9 c-68 -15 -218
6 -215 30 7 44 -17 54 -107 43 -33 -4 -96 -4 -140 1 -235 21 -630 39 -752 32
l-132 -6 0 -2054 0 -2054 5400 0 5400 0 0 750 0 751 -29 28 c-16 16 -32 26
-35 23 -3 -3 -6 2 -6 11 0 10 -5 17 -11 17 -5 0 -7 5 -4 10 3 6 17 10 30 10
60 0 55 -100 55 1205 0 1128 -1 1194 -17 1199 -30 8 -316 -1 -349 -12 -28 -9
-133 -13 -412 -16 l-93 -1 6 -30 c2 -16 2 -24 -1 -17 -3 6 -11 9 -16 6 -7 -4
-8 -2 -4 4 4 7 -4 14 -20 18 -17 4 -29 2 -35 -7 -5 -8 -9 -9 -9 -3 0 8 -16 11
-42 10 -24 -2 -52 3 -63 10 -47 28 -178 48 -297 45 -37 -1 -63 -50 -42 -80 12
-17 11 -31 -6 -103 -23 -95 -25 -135 -9 -175 6 -15 11 -43 10 -62 0 -19 4 -40
10 -48 6 -7 13 -68 16 -135 2 -68 9 -136 14 -153 9 -26 15 -64 34 -205 1 -14
8 -74 14 -134 7 -61 16 -116 22 -122 6 -7 8 -21 5 -31 -3 -10 3 -43 13 -73 14
-42 15 -59 7 -73 -9 -16 -7 -22 12 -34 12 -9 22 -26 22 -39 0 -18 12 -29 55
-50 57 -28 137 -101 161 -147 16 -30 16 -97 -1 -97 -5 0 -32 -19 -58 -43 -48
-42 -49 -43 -28 -61 20 -18 23 -18 87 -2 37 9 85 26 107 36 23 11 46 20 53 20
6 0 37 11 68 25 98 43 103 42 273 -81 176 -129 293 -273 329 -407 19 -71 18
-76 -9 -46 -45 52 -138 95 -227 104 -42 5 -142 39 -240 84 -37 17 -47 18 -60
7 -22 -19 -57 -29 -64 -17 -12 18 -71 -15 -76 -43 -5 -24 -6 -25 -30 -11 -54
31 -46 31 -121 -10 -10 -5 -22 -19 -28 -31 -7 -16 -16 -21 -30 -17 -13 3 -23
0 -27 -10 -3 -8 -18 -20 -32 -26 -15 -6 -33 -24 -40 -39 -7 -17 -26 -34 -47
-42 -36 -14 -50 -40 -43 -77 2 -10 12 -18 23 -17 32 1 117 14 160 24 22 5 64
10 93 10 29 0 60 4 70 9 22 12 241 28 255 19 7 -4 -11 -8 -39 -8 -27 0 -55 -5
-61 -11 -6 -6 -39 -13 -73 -15 -35 -3 -71 -9 -81 -15 -10 -5 -34 -9 -53 -9
-20 0 -44 -4 -54 -9 -14 -8 -94 -20 -209 -34 -12 -1 -24 -5 -28 -8 -5 -6 -35
-167 -35 -191 0 -3 -20 -33 -45 -66 -25 -33 -45 -64 -45 -69 0 -5 -6 -18 -14
-28 -12 -16 -16 -17 -30 -6 -14 11 -16 11 -16 -3 0 -20 -36 -22 -47 -3 -4 8
-20 17 -35 21 -27 6 -27 6 -16 -26 6 -18 19 -45 30 -60 21 -31 23 -48 5 -48
-11 0 -72 63 -117 119 -12 15 -49 27 -90 30 -25 1 -49 7 -54 12 -6 5 -20 9
-32 9 -13 0 -25 4 -29 9 -3 5 -30 15 -61 22 -30 7 -57 16 -60 21 -3 4 -16 8
-30 8 -15 0 -24 6 -24 16 0 13 7 15 37 9 40 -7 115 -30 148 -45 68 -30 173
-60 212 -60 l45 0 -16 25 c-23 35 -43 100 -56 180 -5 39 -15 100 -22 136 -6
37 -8 83 -4 103 4 20 5 36 2 36 -3 0 -33 -27 -66 -60 -33 -33 -70 -60 -80 -60
-20 0 -24 13 -23 78 0 15 -4 21 -12 18 -7 -2 -21 4 -31 15 -9 10 -19 17 -22
14 -3 -2 -14 1 -25 7 -12 6 -57 13 -102 15 -44 3 -85 9 -90 14 -6 4 -20 7 -31
7 -16 -2 -54 11 -159 53 -54 21 -98 30 -121 25 -19 -5 -32 0 -55 24 -17 16
-37 30 -45 30 -9 0 -13 4 -9 9 3 5 1 12 -4 16 -6 3 -13 -11 -17 -30 -10 -56
-33 -40 -65 45 -15 41 -31 89 -35 105 -6 26 -9 20 -17 -40 -11 -89 -22 -103
-53 -73 -64 63 -60 61 -91 45 -22 -12 -45 -13 -108 -6 -44 4 -114 8 -155 9
-88 0 -117 7 -124 27 -11 27 -19 309 -11 388 6 71 9 78 36 93 17 10 35 34 44
59 9 23 30 57 46 74 21 22 26 35 19 44 -16 19 -112 62 -167 75 -28 6 -60 18
-70 25 -10 8 -30 15 -44 15 -15 0 -32 6 -38 14 -6 7 -32 16 -57 19 -48 5 -84
30 -84 58 0 15 -4 16 -29 6 -24 -9 -39 -6 -97 18 -38 16 -73 33 -79 39 -5 6
-28 20 -50 31 -22 11 -48 30 -58 43 -10 12 -26 22 -36 22 -10 0 -38 13 -62 30
-24 16 -49 30 -56 30 -6 0 -13 5 -15 11 -2 5 -21 14 -43 19 -51 12 -105 36
-165 75 -8 5 -29 10 -46 11 -37 1 -104 40 -104 60 0 8 -6 14 -14 14 -12 0 -29
35 -31 66 0 6 -6 18 -13 26 -6 8 -10 17 -7 20 3 3 -1 18 -10 34 -19 36 -19 54
-1 54 22 0 31 22 14 34 -8 6 -18 22 -21 36 -14 51 -16 51 -120 25 -104 -27
-147 -31 -147 -15 0 6 4 10 8 10 12 0 32 46 32 71 0 20 -15 52 -39 82 -8 10
-28 17 -48 17 -24 0 -33 4 -34 18 0 9 -5 4 -10 -13 -11 -35 -14 -173 -5 -203
8 -24 -17 -37 -44 -22 -10 5 -20 7 -23 2 -2 -4 -2 -1 -1 5 2 7 -11 27 -27 44
-49 50 -59 86 -59 211 -1 101 -2 111 -15 94 -8 -11 -18 -17 -21 -13 -4 3 -14
2 -23 -2 -29 -16 -91 -239 -98 -358 l-5 -72 -36 -11 c-51 -14 -61 -13 -62 8 0
9 -3 42 -6 72 -3 30 -1 117 4 193 12 169 3 227 -34 227 -14 0 -23 -4 -19 -9 3
-5 1 -12 -5 -16 -5 -3 -10 1 -10 9 0 9 -4 16 -10 16 -5 0 -10 9 -10 20 0 11
-12 26 -27 34 -16 8 -22 15 -14 16 9 0 11 8 7 25 -5 18 -2 27 9 31 19 8 9 24
-15 24 -22 0 -30 18 -23 53 6 29 -13 38 -23 12 -4 -8 -10 -12 -15 -9 -5 3 -9
-2 -9 -11 0 -33 -32 -9 -62 45 -17 30 -31 60 -33 65 -7 28 -28 75 -33 75 -4 0
-14 -4 -22 -10 -8 -5 -19 -5 -25 -1 -5 5 -23 11 -38 15 -24 6 -27 9 -17 21 10
13 6 18 -24 30 -20 9 -41 13 -46 10 -8 -5 -26 13 -19 20 2 1 42 -3 89 -10 47
-7 87 -11 89 -9 2 2 -3 10 -12 18 -8 8 -17 13 -20 10 -9 -9 -82 35 -95 57 -11
17 -9 19 14 19 33 0 22 17 -17 25 -34 8 -149 75 -149 88 0 4 12 5 26 3 l27 -5
-23 24 c-21 22 -50 41 -164 107 -16 10 -34 22 -40 28 -5 5 -18 10 -28 10 -10
0 -27 9 -38 20 -11 11 -28 20 -38 20 -16 0 -62 41 -62 55 0 12 46 3 103 -21
153 -65 327 -110 327 -84 0 5 -53 35 -117 66 -82 40 -112 59 -100 63 16 6 14
9 -10 27 -15 11 -36 23 -46 27 -10 4 -17 14 -15 24 2 11 -8 22 -27 31 -16 8
-41 24 -55 36 -14 12 -37 30 -52 39 -16 10 -28 24 -28 32 0 12 9 12 53 -5 71
-27 212 -67 267 -75 l45 -7 -65 35 c-36 19 -99 48 -140 66 -122 50 -240 130
-240 162 0 11 -6 19 -12 19 -18 0 -98 34 -98 41 0 4 10 9 21 12 15 4 20 11 15
23 -5 13 -2 15 16 9 50 -16 183 -17 253 -1 74 18 216 90 252 128 24 26 48 99
40 121 -3 8 -19 18 -35 22 -41 9 -57 29 -98 126 -19 46 -40 89 -46 96 -17 21
-29 15 -23 -10 9 -36 -30 -75 -112 -113 -71 -33 -133 -44 -133 -24 0 6 9 10
19 10 24 0 33 13 25 35 -5 13 -9 14 -15 4 -6 -11 -13 -10 -34 1 -15 8 -22 16
-16 18 21 7 11 32 -16 44 -16 7 -49 27 -75 45 -66 46 -88 44 -88 -6 0 -22 5
-43 11 -47 7 -4 9 -23 5 -51 -5 -37 0 -55 28 -111 18 -37 41 -93 51 -125 16
-52 17 -60 3 -73 -14 -14 -16 -13 -22 11 -4 14 -4 30 -1 35 4 6 -3 10 -14 10
-12 0 -21 7 -21 15 0 8 -5 15 -11 15 -7 0 -17 6 -23 14 -6 8 -26 16 -45 18
-31 3 -35 1 -34 -22 1 -38 12 -58 39 -64 13 -4 24 -11 24 -17 0 -6 5 -7 10 -4
6 3 10 1 10 -4 0 -6 8 -11 19 -11 10 0 24 -7 31 -15 13 -15 10 -52 -4 -47 -5
2 -12 -2 -16 -8 -5 -8 -11 -8 -21 2 -13 12 -116 58 -132 58 -16 0 -5 -57 18
-95 13 -22 25 -45 25 -52 0 -18 -89 29 -96 50 -3 10 -15 27 -27 37 -11 11 -18
20 -14 20 4 0 -5 24 -20 53 -15 28 -29 70 -31 92 -6 62 -137 232 -196 255 -38
14 -44 6 -19 -28 24 -32 83 -158 83 -176 0 -7 7 -26 15 -43 8 -16 16 -38 18
-49 2 -10 11 -43 21 -72 16 -48 15 -81 -2 -57 -4 6 -16 15 -27 21 -13 7 -21
23 -22 45 -4 50 -20 129 -36 174 -11 32 -19 40 -38 40 -20 0 -24 -5 -22 -27 1
-19 -3 -28 -13 -28 -8 0 -12 -4 -9 -10 3 -5 -6 -12 -20 -16 -14 -3 -25 -11
-25 -18 0 -6 -5 -4 -10 4 -7 11 -9 -1 -5 -40 l6 -55 -20 24 c-12 13 -21 29
-21 37 0 8 -4 14 -10 14 -20 0 -9 21 18 32 54 24 92 81 92 139 0 34 -27 92
-61 129 -66 73 -62 65 -45 98 9 17 22 36 29 44 8 8 22 30 32 48 10 19 30 53
45 75 34 51 62 93 75 114 33 54 59 81 78 82 12 0 16 3 10 6 -18 7 -16 36 6 85
11 24 22 55 26 70 7 35 55 90 123 140 30 22 50 44 45 48 -4 4 -25 13 -45 20
-40 12 -44 20 -27 51 9 18 8 19 -18 13 -15 -4 -31 -11 -34 -16 -3 -4 -32 -13
-65 -18 -62 -11 -210 -66 -220 -81 -3 -5 -22 -9 -42 -9 -28 0 -44 8 -74 37
-23 23 -57 42 -85 51 -96 27 -159 41 -215 47 -48 5 -58 3 -58 -9z m428 -215
c7 -4 17 -35 22 -67 4 -33 17 -76 29 -95 30 -49 27 -79 -15 -127 -19 -23 -31
-42 -25 -42 17 0 13 -27 -5 -34 -9 -3 -27 -6 -40 -6 -13 0 -24 -4 -24 -9 0 -5
-50 -8 -111 -6 -94 2 -113 5 -121 19 -7 12 -17 16 -33 12 -24 -6 -74 27 -56
38 5 3 11 1 13 -5 5 -14 38 0 38 17 0 8 7 14 16 14 8 0 13 -4 9 -9 -3 -5 -1
-12 5 -16 9 -6 14 7 11 28 0 4 1 7 2 7 10 0 74 -36 86 -48 11 -10 29 -12 75
-7 34 4 66 11 71 17 15 15 -61 76 -104 84 -55 10 -59 32 -15 82 39 46 72 90
89 119 22 38 55 52 83 34z m-378 -254 c0 -14 -6 -24 -14 -24 -7 0 -12 7 -11
16 2 9 4 19 4 24 2 19 21 4 21 -16z m35 -15 c-3 -3 -11 0 -18 7 -9 10 -8 11 6
5 10 -3 15 -9 12 -12z m415 -82 c11 -21 4 -25 -24 -14 -9 3 -16 12 -16 20 0
21 28 17 40 -6z m-60 -120 c-6 -10 -18 -23 -27 -28 -9 -6 -14 -17 -11 -29 3
-12 0 -19 -11 -20 -9 -1 -28 -5 -43 -9 -18 -4 -28 -2 -28 5 0 6 7 11 15 11 8
0 35 20 61 45 50 49 60 55 44 25z m-98 -100 c6 0 6 -6 -2 -15 -6 -8 -9 -19 -5
-25 3 -5 -1 -10 -9 -10 -8 0 -19 -8 -25 -17 -8 -15 -13 -15 -33 -5 -16 9 -33
10 -55 3 -35 -10 -36 -9 -33 28 1 14 -2 21 -9 17 -6 -4 -11 0 -11 10 0 14 2
14 16 3 10 -8 18 -9 22 -2 4 5 27 11 51 11 24 1 47 4 50 7 3 3 11 3 19 0 7 -3
18 -5 24 -5z m-18 -178 c-9 -20 -19 -46 -22 -57 -3 -11 -11 -30 -18 -43 -7
-14 -10 -30 -8 -37 3 -7 -7 -41 -21 -76 -21 -50 -25 -67 -16 -81 6 -10 11 -32
11 -49 0 -17 7 -37 15 -45 8 -9 15 -24 15 -34 0 -17 17 -75 37 -130 8 -24 21
17 22 70 1 39 6 48 34 67 17 13 42 30 55 39 21 16 24 16 45 -5 14 -12 36 -21
55 -21 35 0 43 -15 39 -80 l-1 -35 42 3 c29 2 42 -2 42 -11 0 -7 14 -27 30
-45 17 -18 30 -39 30 -46 0 -20 45 -68 61 -65 8 1 34 -3 59 -11 25 -7 58 -12
73 -11 36 2 90 -52 107 -106 6 -21 16 -47 21 -58 5 -11 17 -52 28 -91 10 -40
32 -94 50 -120 17 -27 32 -53 32 -59 1 -5 16 -27 34 -47 65 -76 86 -130 91
-231 3 -50 8 -93 12 -95 4 -1 6 -28 5 -60 -3 -53 38 -250 57 -277 4 -5 8 -46
9 -90 1 -44 4 -90 7 -102 2 -13 6 -34 9 -47 4 -21 2 -23 -16 -19 -21 6 -21 4
-15 -68 3 -41 9 -185 12 -321 6 -226 5 -248 -10 -248 -20 0 -21 -25 -1 -80 21
-60 19 -65 -15 -30 -16 16 -36 30 -45 30 -8 0 -15 5 -15 10 0 6 -7 10 -16 10
-10 0 -14 -6 -10 -15 3 -8 -2 -19 -12 -25 -43 -24 -43 -24 -22 -68 11 -22 20
-47 20 -54 0 -21 65 -59 78 -46 17 17 42 -9 42 -43 0 -38 -17 -79 -33 -79 -7
0 -27 16 -46 35 -18 19 -37 35 -42 35 -32 0 -73 75 -114 210 -8 25 -21 63 -29
85 -8 22 -15 47 -16 55 0 22 -58 205 -122 390 -11 30 -32 105 -48 165 -34 134
-41 152 -74 190 -14 17 -26 33 -26 37 0 4 -5 19 -11 35 -6 15 -10 29 -10 30 1
7 -71 158 -87 181 -10 15 -26 52 -36 82 -11 30 -29 75 -42 100 -31 63 -50 109
-64 153 -19 60 -41 43 -55 -42 -4 -24 -18 -68 -31 -97 -29 -66 -30 -77 -4 -44
l19 25 32 -33 c31 -31 32 -36 34 -125 1 -74 8 -110 32 -182 26 -74 32 -110 35
-200 2 -60 9 -119 15 -130 6 -11 17 -35 23 -52 7 -18 16 -30 21 -27 10 6 10
-55 0 -136 -4 -35 -2 -62 5 -75 6 -11 23 -76 38 -145 15 -69 36 -161 47 -205
10 -45 19 -99 19 -122 l0 -41 -95 -47 c-74 -37 -116 -67 -186 -133 l-91 -85
-46 11 c-172 42 -419 55 -637 33 -185 -18 -454 -28 -514 -19 -31 5 -83 14
-116 20 -59 12 -67 13 -114 16 l-24 2 24 26 c13 14 23 29 23 32 -4 18 21 60
90 152 56 74 125 212 133 268 3 20 12 49 19 63 12 24 21 64 23 100 1 9 14 30
31 47 24 26 28 36 21 55 -5 13 -7 35 -4 51 3 15 0 37 -6 49 -15 30 -40 130
-35 139 3 5 2 8 -3 8 -4 -1 -24 -21 -43 -47 -19 -25 -70 -89 -112 -143 -42
-53 -127 -177 -189 -276 -116 -187 -142 -223 -232 -319 -54 -58 -55 -58 -86
-46 -17 8 -31 15 -31 16 0 9 54 96 63 102 7 5 13 17 14 28 15 122 15 135 4
135 -6 0 -11 -5 -11 -11 0 -7 -9 -9 -21 -6 -16 4 -25 -2 -37 -24 -10 -16 -20
-29 -24 -29 -4 0 -4 -7 -1 -17 4 -11 3 -14 -5 -9 -8 5 -12 -3 -12 -23 0 -17 5
-31 11 -31 8 0 8 -4 1 -13 -6 -6 -12 -28 -14 -47 -3 -30 -6 -35 -27 -32 -47 5
-76 26 -79 57 -2 17 -13 40 -25 53 -13 14 -21 33 -19 48 4 25 -17 84 -30 84
-4 0 -10 -9 -13 -20 -3 -11 -15 -20 -26 -20 -13 0 -19 -7 -19 -23 0 -17 -6
-23 -25 -25 -14 -1 -25 3 -25 8 0 6 6 10 14 10 8 0 25 19 39 43 50 84 180 258
228 305 27 26 49 50 49 54 0 3 29 50 66 104 36 54 76 121 90 149 14 27 34 59
45 71 10 11 19 25 19 30 0 16 84 119 98 120 30 2 34 5 28 19 -3 8 -1 15 4 15
6 0 10 -7 10 -16 0 -8 5 -12 11 -8 6 3 8 19 5 38 -5 24 -1 37 18 57 31 33 51
73 66 128 6 25 23 67 36 95 13 27 24 53 24 58 0 20 47 78 63 78 11 0 17 8 17
24 0 22 47 122 85 179 24 37 12 67 -26 67 -38 0 -47 22 -26 65 9 18 13 43 10
56 -4 13 -2 20 3 16 5 -3 19 7 31 21 12 15 33 41 47 57 14 17 26 36 26 43 0 6
3 12 8 12 11 0 61 141 77 218 4 18 9 31 12 28 6 -5 33 18 33 29 0 3 -5 3 -12
-1 -7 -4 -8 -3 -4 4 4 7 19 9 36 5 17 -3 36 0 44 7 8 6 24 9 36 5 15 -5 26 0
41 17 l20 23 -6 -22 c-8 -28 1 -30 15 -4 6 13 7 28 1 43 -6 13 -10 17 -10 10
-1 -18 -61 -12 -61 6 0 8 -6 12 -14 9 -11 -4 -13 -1 -9 11 9 25 44 54 86 74
20 10 37 22 37 28 0 18 18 10 23 -11 5 -19 11 -20 92 -17 66 2 90 7 102 20 12
13 13 21 5 31 -6 7 -9 23 -6 34 4 15 -3 29 -26 50 -18 15 -37 27 -41 25 -5 -1
-6 10 -3 24 6 25 5 26 -20 22 -14 -3 -29 -1 -32 4 -3 5 -14 12 -24 16 -28 11
-8 52 25 52 34 0 65 -17 65 -35 0 -8 5 -15 10 -15 6 0 10 6 10 14 0 9 17 16
50 21 28 4 50 10 50 15 0 4 6 10 14 13 8 3 13 -1 12 -11 0 -9 5 -16 13 -14 7
1 19 -2 26 -8 7 -6 21 -12 32 -14 14 -3 19 2 21 22 2 27 22 57 22 34 0 -7 12
-13 28 -13 16 -1 20 -3 10 -6 -10 -2 -18 -9 -18 -15 0 -5 7 -7 15 -4 9 3 18
-1 21 -9 4 -8 12 -15 20 -15 8 0 14 -7 14 -15 0 -23 18 -18 36 11 15 22 15 27
3 34 -7 5 -10 12 -6 16 4 4 3 12 -2 18 -5 6 -14 28 -19 50 -9 31 -8 41 4 54 9
8 14 22 11 32 -3 11 6 20 27 29 17 6 47 20 66 30 19 9 38 16 42 14 4 -2 1 -21
-8 -41z m-283 -182 c5 0 9 -4 9 -10 0 -14 -13 -12 -36 6 -17 14 -17 15 -1 10
10 -3 23 -6 28 -6z m139 0 c0 -5 -5 -10 -11 -10 -5 0 -7 5 -4 10 3 6 8 10 11
10 2 0 4 -4 4 -10z m-477 -107 c2 -10 8 -26 12 -35 5 -13 2 -18 -9 -18 -9 0
-16 -5 -16 -10 0 -6 -8 -5 -19 2 -15 9 -23 9 -36 -2 -14 -12 -18 -12 -26 1 -5
8 -9 17 -9 20 0 14 30 30 52 27 17 -2 22 1 20 15 -2 9 3 17 11 17 8 0 17 -8
20 -17z m-483 -698 c0 -8 8 -15 18 -16 12 0 11 -3 -7 -10 -18 -7 -26 -5 -37 8
-19 25 -17 33 6 33 11 0 20 -7 20 -15z m-440 -295 c0 -5 -2 -10 -4 -10 -3 0
-8 5 -11 10 -3 6 -1 10 4 10 6 0 11 -4 11 -10z m0 -40 c-10 -18 -11 -19 -30
-3 -26 22 -26 23 10 23 27 0 30 -2 20 -20z m3106 -185 c30 -2 48 -15 36 -27
-11 -11 -82 0 -82 14 0 5 -9 6 -20 3 -11 -3 -20 -2 -20 4 0 12 30 20 50 13 8
-3 24 -6 36 -7z m-146 -76 c0 -5 -12 -4 -26 1 -14 6 -35 10 -47 10 -12 0 -33
9 -47 20 -24 18 -22 18 48 -2 39 -12 72 -25 72 -29z m177 -16 c6 4 19 0 29 -8
19 -14 11 -20 -23 -16 -7 1 -13 -4 -13 -11 0 -8 -5 -7 -16 4 -10 10 -14 23
-10 34 6 15 9 16 15 5 5 -7 13 -11 18 -8z m-176 -39 c70 -35 147 -62 196 -70
37 -5 43 -10 43 -30 0 -29 -26 -31 -106 -8 -77 22 -212 103 -222 133 -5 16 23
9 89 -25z m228 -20 c2 -2 2 -6 0 -9 -8 -7 -49 7 -49 17 0 8 38 2 49 -8z
m-3733 -81 c-10 -10 -19 5 -10 18 6 11 8 11 12 0 2 -7 1 -15 -2 -18z m244 -71
c0 -4 -20 -18 -45 -31 -50 -26 -135 -41 -135 -22 0 6 1 11 3 11 1 0 34 11 72
25 74 25 105 30 105 17z m3662 -37 c4 -20 1 -25 -16 -24 -11 0 -15 3 -8 6 13
5 17 24 5 22 -20 -3 -26 2 -13 11 23 15 27 12 32 -15z m4378 -35 c0 -5 -4 -10
-10 -10 -5 0 -10 5 -10 10 0 6 5 10 10 10 6 0 10 -4 10 -10z m-4313 -485 c0
-8 -4 -15 -9 -15 -4 0 -8 7 -8 15 0 8 4 15 8 15 5 0 9 -7 9 -15z m-3627 -505
c9 -16 8 -18 -5 -14 -8 4 -15 12 -15 20 0 20 7 17 20 -6z m2498 -170 c25 0 30
-5 36 -30 3 -16 10 -30 16 -30 6 0 16 -4 23 -10 68 -54 86 -84 61 -98 -14 -8
-14 -10 0 -21 18 -15 21 -41 5 -41 -5 0 -8 4 -4 9 9 16 -15 24 -31 10 -11 -9
-13 -23 -9 -49 6 -33 4 -37 -16 -36 -30 1 -35 -20 -7 -27 17 -5 20 -9 11 -18
-8 -8 -19 -7 -41 5 -17 9 -37 16 -45 16 -18 0 -67 38 -67 51 0 6 4 8 9 5 4 -3
6 6 3 19 -2 14 -11 25 -19 25 -10 0 -14 7 -10 19 3 12 -3 27 -14 37 -11 10
-17 24 -14 32 3 8 -6 24 -21 37 -36 31 -29 61 14 57 34 -4 41 8 17 28 -8 7
-15 16 -15 21 0 14 44 16 67 2 12 -7 35 -13 51 -13z m545 -394 c13 -8 44 -14
75 -13 30 1 56 -1 59 -5 2 -5 17 -8 33 -8 28 0 41 -14 32 -37 -2 -7 -8 -11
-12 -8 -4 3 -11 -2 -14 -11 -4 -12 -2 -15 9 -10 8 3 15 1 15 -5 0 -6 -8 -9
-17 -8 -37 3 -43 -2 -43 -32 0 -19 -4 -29 -12 -27 -34 12 -67 -73 -45 -114 9
-17 19 -22 40 -20 16 2 34 -2 42 -8 10 -8 14 -8 18 2 4 10 9 8 17 -5 9 -13 15
-15 30 -7 28 15 40 12 40 -10 0 -22 10 -26 27 -9 7 7 20 8 30 5 17 -7 17 -8 1
-20 -23 -17 -23 -26 1 -26 42 0 49 -9 40 -53 -11 -57 -11 -69 1 -62 6 3 10 1
10 -4 0 -6 -7 -11 -15 -11 -8 0 -15 -5 -15 -11 0 -7 -10 -9 -25 -7 -22 5 -24
2 -19 -18 7 -26 -10 -33 -20 -9 -3 8 -15 15 -26 15 -24 0 -28 -41 -7 -59 21
-17 74 8 88 41 7 17 20 29 33 30 11 0 27 2 34 2 7 1 21 11 30 23 15 21 21 22
55 12 31 -8 37 -14 32 -30 -7 -21 5 -25 23 -7 14 14 17 11 26 -19 6 -19 2 -25
-21 -35 -39 -17 -37 -15 -35 -54 2 -29 0 -35 -15 -32 -20 3 -43 -9 -43 -21 0
-8 37 -24 52 -22 3 0 9 -6 12 -14 3 -10 0 -12 -11 -8 -12 5 -15 2 -10 -10 5
-13 -7 -27 -43 -55 -27 -20 -49 -43 -49 -50 -1 -7 -8 -15 -16 -18 -8 -4 -15
-14 -15 -24 0 -14 -11 -20 -52 -25 -29 -4 -60 -12 -69 -18 -11 -7 -33 -7 -70
2 -30 7 -67 15 -82 18 -16 3 -31 12 -34 19 -3 8 -11 14 -19 14 -8 0 -14 5 -14
10 0 6 -8 10 -18 10 -31 0 -82 30 -82 48 0 9 -13 24 -29 33 -27 16 -28 20 -26
75 1 35 -4 67 -12 79 -15 23 -17 64 -4 98 7 18 5 31 -7 48 -12 17 -16 51 -17
143 -1 67 -8 153 -14 193 -15 87 -5 107 61 135 53 21 82 22 111 4z m-507 -61
c8 -8 21 -12 29 -9 9 4 15 0 15 -8 0 -8 -7 -15 -15 -15 -8 0 -15 5 -15 10 0 5
-11 6 -24 3 -26 -6 -42 6 -31 24 9 14 24 12 41 -5z m687 -95 c3 -11 1 -20 -4
-20 -5 0 -9 9 -9 20 0 11 2 20 4 20 2 0 6 -9 9 -20z m-723 -141 c0 -31 -14
-39 -24 -13 -8 21 3 56 15 49 5 -4 9 -19 9 -36z m5 -49 c-3 -5 -12 -10 -18
-10 -7 0 -6 4 3 10 19 12 23 12 15 0z m2920 0 c0 0 24 -3 53 -5 42 -3 58 -9
78 -30 13 -14 22 -30 19 -35 -3 -5 4 -11 14 -15 12 -4 18 -12 14 -21 -4 -10 2
-14 21 -14 14 0 26 -4 26 -9 0 -6 18 -8 41 -5 25 3 38 1 35 -5 -4 -5 13 -13
39 -16 35 -6 45 -11 45 -26 0 -11 5 -19 10 -19 6 0 10 6 10 13 0 9 2 9 8 -1 5
-7 15 -10 24 -7 8 3 21 -1 28 -10 7 -8 18 -15 26 -15 7 0 19 -8 26 -17 15 -20
87 -60 101 -55 33 10 97 -84 97 -143 0 -22 -3 -25 -26 -19 -24 6 -25 5 -12
-15 11 -19 21 -21 72 -19 57 3 59 4 61 31 0 20 13 39 43 65 23 20 42 42 42 49
0 21 37 24 98 8 33 -8 68 -15 78 -15 11 -1 55 -18 99 -40 60 -29 76 -40 63
-45 -10 -4 -18 -14 -18 -22 0 -11 -5 -13 -17 -8 -24 10 -67 7 -71 -5 -2 -6
-11 -10 -20 -10 -14 0 -14 2 -3 9 7 5 10 14 6 21 -5 8 -11 5 -22 -9 -11 -17
-25 -21 -66 -21 -82 0 -160 -12 -145 -21 7 -5 33 -9 58 -9 25 0 52 -5 60 -11
20 -14 -144 -3 -265 18 -108 18 -285 18 -300 -1 -16 -21 -37 -8 -24 15 5 11 8
28 4 38 -3 12 3 22 20 31 19 10 25 21 23 39 -3 24 -6 26 -50 23 -43 -3 -46 -2
-41 17 3 12 12 21 20 21 10 0 13 6 9 16 -3 9 -6 23 -6 32 0 13 -4 12 -22 -5
-15 -14 -33 -20 -50 -18 -19 2 -28 -1 -28 -11 0 -12 -37 -34 -56 -34 -3 0 -10
14 -15 30 -14 38 -49 42 -49 5 0 -16 -6 -25 -16 -25 -10 0 -14 6 -11 14 7 18
-43 63 -64 58 -9 -1 -22 4 -29 13 -7 8 -23 15 -37 15 -45 0 -81 27 -94 71 -7
22 -21 45 -31 50 -46 25 43 125 101 114 9 -2 16 -4 16 -5z m255 -110 c0 -5 -2
-10 -4 -10 -3 0 -8 5 -11 10 -3 6 -1 10 4 10 6 0 11 -4 11 -10z m-2075 -40 c3
-5 1 -10 -4 -10 -6 0 -11 5 -11 10 0 6 2 10 4 10 3 0 8 -4 11 -10z m25 -97 c0
-10 -45 -63 -53 -63 -12 0 18 60 33 64 8 2 16 4 18 5 1 0 2 -2 2 -6z m4637
-59 c-3 -3 -12 -4 -19 -1 -8 3 -5 6 6 6 11 1 17 -2 13 -5z m493 -34 c0 -5 -10
-10 -22 -10 -19 0 -20 2 -8 10 19 13 30 13 30 0z m-3160 -4 c0 -3 -4 -8 -10
-11 -5 -3 -10 -1 -10 4 0 6 5 11 10 11 6 0 10 -2 10 -4z m1198 -102 c34 -9 26
-24 -12 -24 -36 0 -56 14 -34 23 18 7 20 7 46 1z m-65 -140 c9 -4 17 -10 17
-15 0 -15 -16 -10 -41 12 -13 11 -17 18 -9 15 8 -3 23 -9 33 -12z m47 -18 c0
-3 -4 -8 -10 -11 -5 -3 -10 -1 -10 4 0 6 5 11 10 11 6 0 10 -2 10 -4z m85 -28
c14 -13 -26 -5 -50 10 -18 11 -17 12 10 6 17 -4 34 -11 40 -16z m-3885 -59 c0
-5 -4 -9 -10 -9 -5 0 -10 7 -10 16 0 8 5 12 10 9 6 -3 10 -10 10 -16z m665
-61 c14 -6 25 -15 25 -20 0 -11 -7 -10 -33 4 -12 6 -35 15 -52 19 l-30 7 32 1
c18 1 44 -4 58 -11z m-27 -63 c57 -37 125 -156 114 -198 -1 -4 -4 -94 -7 -200
-3 -105 -8 -208 -12 -227 -10 -58 -11 -75 -1 -81 4 -3 2 -19 -6 -35 -26 -53
-29 -74 -12 -79 51 -16 52 -17 23 -27 -15 -6 -44 -7 -63 -3 -33 6 -35 8 -35
48 0 104 -4 133 -16 142 -17 13 -26 62 -13 70 8 5 7 11 -1 21 -8 10 -8 14 0
14 6 0 11 9 11 20 0 11 4 20 9 20 5 0 -4 14 -21 30 -26 27 -29 35 -23 70 4 26
3 40 -4 40 -6 0 -11 8 -11 18 0 9 -7 29 -14 45 -8 15 -11 27 -6 27 20 0 -9 59
-35 71 -5 2 -10 27 -11 54 -1 28 -6 67 -12 88 -27 101 47 138 146 72z m3989 4
c46 -26 62 -39 44 -39 -18 0 -53 20 -74 41 -23 24 -16 24 30 -2z m-4607 -90
c0 -4 -4 -11 -10 -14 -5 -3 -10 3 -10 14 0 12 -5 21 -11 21 -5 0 -7 5 -3 12 5
7 11 5 21 -7 7 -11 13 -22 13 -26z m-3 -91 c-3 -8 -6 -5 -6 6 -1 11 2 17 5 13
3 -3 4 -12 1 -19z"/>
<path d="M3330 5460 c0 -5 5 -10 10 -10 6 0 10 5 10 10 0 6 -4 10 -10 10 -5 0
-10 -4 -10 -10z"/>
<path d="M3278 5435 c-21 -28 -22 -39 -5 -53 21 -17 51 11 41 40 -4 13 -7 26
-6 31 4 15 -14 5 -30 -18z"/>
<path d="M4184 4857 c-9 -23 0 -92 11 -88 6 1 9 7 7 13 -1 5 4 16 12 24 10 10
13 22 7 36 -10 27 -29 35 -37 15z"/>
<path d="M3730 4718 c0 -33 19 -88 31 -88 12 0 11 20 -2 61 -16 46 -29 59 -29
27z"/>
<path d="M3774 4528 c-9 -48 -7 -56 14 -85 27 -36 52 -43 52 -15 0 24 -42 152
-50 152 -4 0 -11 -24 -16 -52z"/>
<path d="M2086 3163 c-19 -26 -32 -50 -30 -53 6 -5 32 27 58 72 27 44 10 33
-28 -19z"/>
<path d="M1854 3159 c-22 -28 -37 -79 -24 -79 14 0 41 51 38 72 -2 18 -5 19
-14 7z"/>
<path d="M1837 2993 c-11 -11 -8 -81 4 -89 7 -4 10 7 8 33 -2 21 0 44 5 51 8
13 -6 17 -17 5z"/>
<path d="M4440 2401 c0 -5 7 -11 15 -15 8 -3 15 -1 15 3 0 5 -7 11 -15 15 -8
3 -15 1 -15 -3z"/>
<path d="M5273 1823 c9 -2 23 -2 30 0 6 3 -1 5 -18 5 -16 0 -22 -2 -12 -5z"/>
<path d="M4850 1585 c0 -8 5 -15 10 -15 6 0 10 7 10 15 0 8 -4 15 -10 15 -5 0
-10 -7 -10 -15z"/>
<path d="M8415 1480 c3 -5 8 -10 11 -10 2 0 4 5 4 10 0 6 -5 10 -11 10 -5 0
-7 -4 -4 -10z"/>
<path d="M8395 6570 c-3 -5 -1 -10 4 -10 6 0 11 5 11 10 0 6 -2 10 -4 10 -3 0
-8 -4 -11 -10z"/>
<path d="M4327 6193 c-31 -32 -65 -70 -77 -85 -14 -19 -31 -28 -50 -28 -27 0
-56 -21 -43 -33 3 -4 16 -32 29 -63 30 -74 67 -126 120 -170 l44 -36 -22 37
c-19 33 -20 43 -11 78 7 26 8 48 2 59 -5 9 -9 26 -9 37 0 22 11 25 77 21 30
-1 33 2 81 101 l49 103 -21 18 c-13 11 -38 17 -67 18 -43 0 -50 -4 -102 -57z"/>
<path d="M4062 5682 c-17 -5 26 -39 61 -47 29 -8 34 1 14 26 -13 17 -54 28
-75 21z"/>
<path d="M1595 5668 c-15 -9 -15 -12 -2 -26 28 -32 25 -56 -10 -71 -37 -17
-53 -52 -53 -120 l0 -46 41 48 c23 26 57 55 78 63 43 18 130 28 228 26 l72 -1
-11 32 c-6 18 -17 36 -25 40 -7 4 -13 14 -13 22 0 8 -9 19 -20 25 -17 9 -20 8
-20 -11 0 -21 -3 -21 -65 -17 -36 3 -71 11 -79 17 -20 17 -101 29 -121 19z"/>
<path d="M1518 5261 c-49 -31 -68 -56 -68 -91 0 -20 1 -20 16 -5 9 9 29 24 43
33 47 29 101 74 101 83 0 18 -47 8 -92 -20z"/>
<path d="M4550 5190 c8 -5 23 -10 32 -10 41 0 118 -23 118 -34 0 -12 19 -21
119 -54 63 -21 52 10 -13 39 -23 10 -55 30 -70 44 -25 23 -35 25 -114 25 -60
0 -82 -3 -72 -10z"/>
<path d="M6521 4757 c-6 -8 -9 -16 -6 -18 2 -3 0 -22 -6 -42 -7 -25 -14 -34
-24 -30 -23 8 -18 -20 8 -42 49 -43 92 -56 115 -33 17 17 15 23 -18 60 -33 36
-38 69 -15 88 13 11 13 15 3 21 -19 13 -44 11 -57 -4z"/>
<path d="M4980 4615 c49 -31 148 -70 157 -62 9 10 -81 67 -127 81 -82 24 -90
19 -30 -19z"/>
<path d="M2266 4615 c-3 -9 0 -15 9 -15 9 0 12 6 9 15 -4 8 -7 15 -9 15 -2 0
-5 -7 -9 -15z"/>
<path d="M5170 4390 c8 -5 20 -10 25 -10 6 0 3 5 -5 10 -8 5 -19 10 -25 10 -5
0 -3 -5 5 -10z"/>
<path d="M1982 4369 c2 -7 10 -15 17 -17 8 -3 12 1 9 9 -2 7 -10 15 -17 17 -8
3 -12 -1 -9 -9z"/>
<path d="M5603 4223 c-31 -4 -33 -7 -33 -44 0 -45 3 -46 46 -20 17 10 49 22
72 26 48 8 54 21 16 35 -25 10 -40 10 -101 3z"/>
<path d="M1800 4206 c0 -2 7 -6 15 -10 8 -3 15 -1 15 4 0 6 -7 10 -15 10 -8 0
-15 -2 -15 -4z"/>
<path d="M5377 4160 c-26 -37 -21 -56 7 -27 11 11 31 67 24 67 -2 0 -16 -18
-31 -40z"/>
<path d="M1745 4158 c-9 -22 4 -43 17 -30 7 7 7 16 0 29 -10 17 -11 17 -17 1z"/>
<path d="M6000 3739 c0 -35 8 -35 15 -1 2 12 0 24 -6 27 -5 4 -9 -8 -9 -26z"/>
<path d="M7646 3722 c-9 -14 44 -112 60 -112 10 0 9 10 -4 38 -27 59 -48 87
-56 74z"/>
<path d="M9350 2170 c-14 -4 -40 -8 -57 -9 -18 -1 -33 -5 -33 -10 0 -4 46 -31
102 -59 75 -37 105 -48 111 -39 8 12 1 103 -9 119 -6 10 -80 9 -114 -2z m-3
-36 c-3 -3 -12 -4 -19 -1 -8 3 -5 6 6 6 11 1 17 -2 13 -5z"/>
</g>
</svg>
